# xmcd CD database file
#
# Track frame offsets:
#	150
#	24483
#	49275
#	72598
#	97223
#	122423
#	147518
#	172010
#	194673
#
# Disc length: 2895 seconds
#
# Revision: 0
# Processed by: cddbd v1.5.1PL2 Copyright (c) Steve Scherf et al.
# Submitted via: CDex 1.70beta2
#
DISCID=8e0b4d09
DTITLE=Kaori Kobayashi - Solar
DYEAR=2006
DGENRE=Jazz
TTITLE0=SOLAR
TTITLE1=I LOVE YOUR SMILE
TTITLE2=BIRD ISLAND
TTITLE3=TOMORROW(BETTER YOU, BETTER ME)
TTITLE4=ANOTHER WAY
TTITLE5=SUNSET OCEAN
TTITLE6=NOTHING'S GONNA CHANGE MY LOVE FOR YOU
TTITLE7=SMOKY
TTITLE8=BE MY LOVE
EXTD=YEAR: 2006
EXTT0=
EXTT1=
EXTT2=
EXTT3=
EXTT4=
EXTT5=
EXTT6=
EXTT7=
EXTT8=
PLAYORDER=
